<?xml version="1.0" encoding="utf-8"?>
<!DOCTYPE svg PUBLIC "-//W3C//DTD SVG 1.1//EN" "http://www.w3.org/Graphics/SVG/1.1/DTD/svg11.dtd">
<svg version="1.1" xmlns="http://www.w3.org/2000/svg" xmlns:xlink="http://www.w3.org/1999/xlink" x="0px" y="0px"
	 width="24px" height="24px" viewBox="0 0 24 24" enable-background="new 0 0 24 24" xml:space="preserve">
<circle fill="#35495E" cx="12" cy="12" r="12"/>
<g transform="translate(39.137,49.474)">
	<path fill="#ECF0F1" d="M-20.728-41.38c-0.235-0.458-0.587-0.83-1.036-1.11c-0.466-0.287-1.008-0.485-1.64-0.605
		c-0.635-0.114-1.377-0.169-2.228-0.177l-3.942,0.003c-0.41,0.005-0.812,0.326-0.905,0.72l-2.658,11.556
		c-0.091,0.396,0.165,0.723,0.572,0.723h1.888c0.409,0,0.813-0.318,0.905-0.723l0.65-2.804c0.087-0.392,0.491-0.717,0.9-0.717h0.54
		c2.311-0.002,4.101-0.475,5.388-1.42c1.286-0.944,1.929-2.195,1.925-3.743C-20.366-40.357-20.483-40.925-20.728-41.38
		 M-24.806-37.604c-0.57,0.416-1.358,0.625-2.383,0.625h-0.463c-0.408,0-0.666-0.324-0.576-0.721l0.569-2.45
		c0.086-0.395,0.494-0.723,0.902-0.718l0.618-0.004c0.722,0,1.271,0.124,1.641,0.369c0.364,0.239,0.549,0.617,0.543,1.125
		C-23.944-38.613-24.234-38.022-24.806-37.604"/>
</g>
</svg>
