<?xml version="1.0" encoding="utf-8"?>
    
<!DOCTYPE svg PUBLIC "-//W3C//DTD SVG 1.1//EN" "http://www.w3.org/Graphics/SVG/1.1/DTD/svg11.dtd">
<svg version="1.1" xmlns="http://www.w3.org/2000/svg" xmlns:xlink="http://www.w3.org/1999/xlink" x="0px" y="0px"
	 width="24px" height="24px" viewBox="0 0 24 24" enable-background="new 0 0 24 24" xml:space="preserve">
<circle fill="#34495E" cx="12" cy="12" r="12"/>
<path fill="#ECF0F1" d="M7.029,11.515c1.571,0,3.047,0.615,4.157,1.73c1.112,1.116,1.723,2.604,1.723,4.187h2.421
	c0-4.596-3.724-8.335-8.301-8.335V11.515L7.029,11.515z M7.033,7.225c5.599,0,10.154,4.58,10.154,10.208h2.42
	c0-6.962-5.641-12.627-12.574-12.627L7.033,7.225L7.033,7.225z M10.38,15.742c0,0.926-0.75,1.677-1.676,1.677
	c-0.926,0-1.676-0.751-1.676-1.677c0-0.924,0.75-1.676,1.676-1.676C9.629,14.066,10.38,14.816,10.38,15.742z"/>
</svg>
