<?xml version="1.0" encoding="utf-8"?>
    
<!DOCTYPE svg PUBLIC "-//W3C//DTD SVG 1.1//EN" "http://www.w3.org/Graphics/SVG/1.1/DTD/svg11.dtd">
<svg version="1.1" id="Layer_1" xmlns="http://www.w3.org/2000/svg" xmlns:xlink="http://www.w3.org/1999/xlink" x="0px" y="0px"
	 width="24px" height="24px" viewBox="0 0 24 24" enable-background="new 0 0 24 24" xml:space="preserve">
<circle fill="#35495E" cx="12" cy="12" r="12"/>
<path fill="#ECF0F1" d="M16.375,8.132c0-0.854,0-1.993,0-3.132c-2.917,0-5.833,0-8.75,0c0,1.096,0,2.19,0,3.149
	C6.688,8.691,5.844,9.179,5,9.667c0,2.431,0,4.86,0,7.292c0.83,0.167,1.659,0.333,2.625,0.527c0,0.478,0,0.995,0,1.514
	c2.917,0,5.833,0,8.75,0c0-0.519,0-1.036,0-1.514c0.966-0.193,1.796-0.36,2.625-0.527c0-2.432,0-4.861,0-7.292
	C18.196,9.197,17.396,8.729,16.375,8.132z M7.591,16.47c-0.597-0.154-1.159-0.196-1.58-0.463c-0.168-0.104-0.146-0.962,0.004-1.034
	c0.456-0.222,1.018-0.229,1.576-0.325C7.591,15.336,7.591,15.766,7.591,16.47z M15.463,18.019c-2.273,0-4.524,0-6.873,0
	c0-1.029,0-2.073,0-3.24c2.22,0,4.468,0,6.873,0C15.463,15.887,15.463,16.9,15.463,18.019z M15.488,10.154c-2.274,0-4.527,0-6.899,0
	c0-1.323,0-2.695,0-4.174c2.252,0,4.503,0,6.899,0C15.488,7.426,15.488,8.731,15.488,10.154z M18.003,15.969
	c-0.359,0.298-0.901,0.374-1.572,0.611c0-0.818,0-1.282,0-1.954c0.571,0.101,1.111,0.085,1.513,0.315
	C18.119,15.043,18.171,15.83,18.003,15.969z"/>
<path fill="#ECF0F1" d="M14.58,16.777c-1.06-0.61-4.353-0.563-5.17,0.073C10.477,17.46,13.773,17.415,14.58,16.777z"/>
</svg>
