<?xml version="1.0" encoding="utf-8"?>
    
<!DOCTYPE svg PUBLIC "-//W3C//DTD SVG 1.1//EN" "http://www.w3.org/Graphics/SVG/1.1/DTD/svg11.dtd">
<svg version="1.1" xmlns="http://www.w3.org/2000/svg" xmlns:xlink="http://www.w3.org/1999/xlink" x="0px" y="0px"
	 width="24px" height="24px" viewBox="0 0 24 24" enable-background="new 0 0 24 24" xml:space="preserve">
<circle fill="#34495E" cx="12" cy="12" r="12"/>
<path fill="#ECF0F1" d="M15.015,22.763c0-0.404,0.015-1.731,0.015-3.375c0-1.148-0.393-1.899-0.837-2.279
	c2.747-0.303,5.633-1.345,5.633-6.071c0-1.343-0.478-2.44-1.269-3.301c0.128-0.311,0.551-1.561-0.121-3.255
	c0,0-1.036-0.331-3.39,1.261c-0.986-0.272-2.039-0.409-3.087-0.414c-1.05,0.004-2.104,0.141-3.088,0.414
	C6.516,4.151,5.48,4.482,5.48,4.482C4.81,6.176,5.233,7.426,5.359,7.737c-0.789,0.861-1.271,1.958-1.271,3.301
	c0,4.714,2.881,5.771,5.619,6.08c-0.353,0.308-0.671,0.851-0.783,1.645c-0.703,0.316-2.489,0.858-3.589-1.022
	c0,0-0.65-1.181-1.89-1.269c0,0-1.204-0.014-0.084,0.749c0,0,0.809,0.377,1.37,1.8c0,0,0.725,2.392,4.154,1.65
	c0.006,1.026,0.017,1.799,0.017,2.093c0,0.286-0.177,0.614-0.642,0.61C9.428,23.739,10.613,24,11.901,24
	c1.288,0,2.592-0.205,3.75-0.624C15.188,23.379,15.015,23.05,15.015,22.763z"/>
</svg>
