<?xml version="1.0" encoding="utf-8"?>
    
<!DOCTYPE svg PUBLIC "-//W3C//DTD SVG 1.1//EN" "http://www.w3.org/Graphics/SVG/1.1/DTD/svg11.dtd">
<svg version="1.1" xmlns="http://www.w3.org/2000/svg" xmlns:xlink="http://www.w3.org/1999/xlink"
	 x="0px" y="0px" width="24px" height="24px" viewBox="257 257 24 24" enable-background="new 257 257 24 24" xml:space="preserve">
<style>
svg {
    cursor: pointer;
}
svg circle {
    transition: fill 0.5s;
    fill: #2c3e50;
}
svg:hover circle {
    fill: #2ECC71;
}
</style>
<script xmlns="http://www.w3.org/2000/svg" type="text/ecmascript"><![CDATA[
    var svg = document.getElementsByTagName('svg')[0];
    svg.addEventListener('click', function(){
        var event = new MouseEvent('click');
        window.parent.document.getElementById('g+-share').dispatchEvent(event);
    });
]]></script>
<circle fill="#34495E" cx="269" cy="269" r="12"/>
<path fill="#ECF0F1" d="M271.313,262.589h-3.378c-0.448,0-0.928,0.052-1.44,0.157c-0.518,0.12-1.017,0.38-1.496,0.776
	c-0.699,0.678-1.049,1.434-1.049,2.267c0,0.688,0.246,1.293,0.739,1.812c0.472,0.557,1.156,0.841,2.056,0.851
	c0.17,0,0.351-0.01,0.543-0.032c-0.032,0.089-0.066,0.186-0.104,0.29c-0.043,0.102-0.063,0.226-0.063,0.375
	c0,0.25,0.055,0.463,0.167,0.641c0.095,0.183,0.202,0.354,0.324,0.516c-0.394,0.011-0.889,0.06-1.485,0.147
	c-0.602,0.105-1.177,0.313-1.724,0.628c-0.487,0.292-0.823,0.63-1.009,1.015c-0.191,0.386-0.288,0.735-0.288,1.049
	c0,0.644,0.295,1.196,0.884,1.659c0.583,0.496,1.466,0.749,2.649,0.761c1.413-0.022,2.494-0.362,3.244-1.019
	c0.722-0.634,1.084-1.361,1.084-2.183c-0.011-0.579-0.143-1.048-0.396-1.406c-0.268-0.353-0.581-0.675-0.938-0.968l-0.572-0.472
	c-0.083-0.083-0.168-0.179-0.256-0.289c-0.104-0.115-0.154-0.262-0.154-0.438c0-0.183,0.05-0.342,0.15-0.48
	c0.086-0.132,0.179-0.251,0.279-0.356c0.176-0.153,0.342-0.306,0.497-0.454c0.142-0.149,0.274-0.312,0.4-0.487
	c0.257-0.363,0.391-0.85,0.4-1.456c0-0.33-0.037-0.62-0.112-0.868c-0.089-0.248-0.192-0.463-0.309-0.646
	c-0.123-0.192-0.248-0.355-0.375-0.487c-0.133-0.127-0.251-0.223-0.357-0.289h1.041L271.313,262.589z M269.462,271.836
	c0.278,0.319,0.419,0.694,0.419,1.125c0,0.529-0.205,0.962-0.612,1.299c-0.42,0.341-1.028,0.518-1.823,0.529
	c-0.888-0.012-1.586-0.21-2.097-0.596c-0.538-0.387-0.807-0.877-0.807-1.472c0-0.305,0.062-0.563,0.186-0.778
	c0.107-0.205,0.239-0.376,0.396-0.513c0.161-0.133,0.319-0.234,0.476-0.306c0.156-0.066,0.276-0.116,0.362-0.149
	c0.366-0.111,0.724-0.189,1.074-0.24c0.354-0.032,0.574-0.043,0.66-0.032c0.146,0,0.272,0.006,0.38,0.016
	C268.703,271.16,269.165,271.532,269.462,271.836z M268.913,266.846c-0.041,0.228-0.133,0.448-0.275,0.664
	c-0.296,0.303-0.667,0.464-1.111,0.48c-0.352,0-0.665-0.108-0.938-0.324c-0.273-0.215-0.496-0.478-0.67-0.787
	c-0.357-0.663-0.537-1.302-0.537-1.915c-0.011-0.463,0.111-0.884,0.368-1.26c0.303-0.358,0.684-0.544,1.142-0.555
	c0.346,0.011,0.651,0.113,0.918,0.307c0.261,0.204,0.471,0.47,0.63,0.796c0.341,0.68,0.512,1.354,0.512,2.022
	C268.95,266.429,268.938,266.62,268.913,266.846z M276.582,267.874v-0.01h-1.777v-1.81h-1.039v1.81h-1.787v1.011h0.012v0.038
	h1.775v1.776h1.04v-1.776h1.819v-1.039H276.582L276.582,267.874z"/>
</svg>
