<?xml version="1.0" encoding="utf-8"?>
    
<!DOCTYPE svg PUBLIC "-//W3C//DTD SVG 1.1//EN" "http://www.w3.org/Graphics/SVG/1.1/DTD/svg11.dtd">
<svg version="1.1" xmlns="http://www.w3.org/2000/svg" xmlns:xlink="http://www.w3.org/1999/xlink" x="0px" y="0px"
	 width="195px" height="195px" viewBox="0 0 195 195" enable-background="new 0 0 195 195" xml:space="preserve">
<rect y="0.001" fill="#34495E" width="195" height="194.999"/>
<g>
	<path fill="#2ECC71" d="M0,18.677c3.834,3.392,9.147,4.146,12.975,1.438c4.585-3.245,5.286-10.17,1.546-15.476
		c-1.466-2.077-3.641-3.677-5.857-4.637H0V18.677z M4.116,6.536C4.954,6.086,6.47,7.303,7.528,9.249
		c1.044,1.95,1.203,3.896,0.366,4.343c-0.839,0.454-2.369-0.763-3.413-2.709C3.438,8.929,3.271,6.987,4.116,6.536z"/>
	<path fill="#2ECC71" d="M2.562,158.237c7.891-6.909,13.672-14.707,17.892-22.738c11.221-2.479,22.14-2.686,32.277-1.53
		c1.593,3.301,2.506,8.393,0.465,16.047c-0.045,0.638-1.06,1.202-1.256,1.176c-7.405-1.016-14.621,4.61-16.139,12.555
		c-1.523,7.955,3.249,15.225,10.654,16.233c7.395,1.016,14.625-4.604,16.14-12.555c1.211-6.335-2.187-13.431-6.367-15.175
		c-1.021-0.591-0.542-1.554-0.404-1.958c1.264-4.199,2.392-12.113,0.654-15.839c8.304,1.236,16.011,3.331,22.859,5.729
		c0.039,0.054,0.061,0.094,0.099,0.154c0.899,2.746,1.479,6.167,1.479,10.41c0.137,0.688-0.755,1.51-0.99,1.53
		c-8.007,0.631-13.993,8.229-13.368,16.975c0.624,8.736,7.625,15.312,15.63,14.68c8.006-0.632,14-8.229,13.368-16.975
		c-0.494-6.963-6.01-13.671-10.839-14.553c-1.234-0.381-0.998-1.518-0.975-1.965c0.075-2.188-0.207-3.962-0.466-6.524
		c-0.099-0.869-0.729-1.904-1.477-2.833c11.066,4.115,19.576,8.873,24.199,11.72c0.381,0.537,0.366,1.446,0.229,1.587
		c-5.576,6.458-3.809,16.584,3.976,22.598c7.799,6.02,18.653,5.636,24.268-0.832c5.605-6.475,3.83-16.601-3.961-22.618
		c-6.209-4.794-16.034-5.636-20.491-2.655c-1.256,0.631-2.368,0.965-3.312,0.504c-2.231-1.075-17.87-10.036-20.818-11.389
		c-0.883-0.408-1.301-0.388-1.348-0.134c-0.297-0.147-0.608-0.308-0.905-0.454c2.185-0.498,3.931-0.882,5.856-1.594
		c0.464-0.171,1.577-0.789,2.407,0.214c2.612,4.196,11.577,6.973,19.043,4.991c9.369-2.482,15.234-10.714,13.086-18.378
		c-2.155-7.661-11.479-11.867-20.855-9.389c-9.369,2.486-15.234,10.711-13.086,18.375c0.06,0.211-0.488,1.344-1.256,1.45
		c-3.749,1.26-7.017,1.918-9.866,2.172c-7.189-3.19-13.916-5.496-20.063-7.149c2.606-1.487,4.96-3.519,6.864-5.903
		c0.312-0.375,0.892-1.443,2.172-1.022c4.585,2.191,13.747,0.03,18.98-5.353c6.588-6.755,6.954-16.544,0.839-21.866
		c-6.109-5.321-16.409-4.159-22.988,2.59c-6.582,6.755-6.956,16.544-0.83,21.866c0.167,0.153,0.334,1.366-0.26,1.844
		c-2.88,3.397-5.447,5.646-7.702,7.1c-14.738-3.602-26.571-3.194-31.553-2.82c3.657-9.992,6.573-20.191,6.618-31.156
		c2.545-3.97,6.799-9.742,12.97-15.575c0.548-0.566,1.423-1.37,2.795-0.062c6.14,5.855,16.049,6.5,23.643,0.346
		c7.603-6.157,9.432-16.495,4.084-23.094C69.2,50.397,58.71,50.034,51.11,56.189c-6.049,4.901-9.072,13.007-7.017,19.169
		c0.373,1.321,0.366,2.691-0.22,3.122c-3.314,2.495-8.917,7.895-12.711,14.148c0.259-7.46-0.235-13.582-0.685-17.386
		c0.343-0.524,0.952-1.075,1.66-1.521c5.647-3.202,8.832-11.243,7.621-18.938c-1.516-9.661-9.549-16.411-17.928-15.088
		C13.447,41.014,7.879,49.919,9.395,59.581c1.515,9.657,9.315,15.815,17.793,15.582c1.89-0.05,2.003,1.129,2.035,1.911
		c0.122,1.587,0.197,3.118,0.243,4.604c-0.229,3.568-0.525,6.979-0.9,10.227c-5.437-5.51-11.349-6.896-16.002-8.322
		c-0.693-0.211-1.973-1.223-2.057-2.596C10.358,75.29,6.032,69.525,0,66.475v27.965c4.223-1.51,7.624-4.543,9.082-8.76
		c0.084-0.224,2.309-0.892,3.009-0.544c10.253,2.776,14.541,5.95,16.255,8.499c-0.084-0.01-0.144-0.023-0.221-0.027
		c-12.369-0.271-21.944,5.486-26.089,8.426C1.69,102.277,0.85,102.766,0,102.966v20.771c3.886-5.212,4.592-11.951,1.236-17.059
		c-0.129-0.19,0.669-2.269,1.341-2.603c11.846-8.987,21.366-9.067,25.518-8.496C24.039,124.371,13.417,140.293,0,151.067v20.282
		c21.871,4.995,37.242,13.701,48.09,23.65h7.418C33.88,170.926,2.562,158.237,2.562,158.237z M51.612,165.521
		c-0.868,2.649-2.552,4.526-3.771,4.216c-1.226-0.314-1.507-2.709-0.64-5.355c0.868-2.64,2.544-4.533,3.771-4.216
		C52.19,160.482,52.479,162.881,51.612,165.521z M115.52,160.485c1.081-0.979,3.884,0.124,6.261,2.473
		c2.362,2.349,3.404,5.044,2.323,6.023c-1.089,0.979-3.885-0.127-6.254-2.473C115.481,164.164,114.431,161.464,115.52,160.485z
		 M105.389,127.144c3.077-1.209,5.995-1.169,6.52,0.077c0.533,1.242-1.523,3.227-4.601,4.439c-3.07,1.206-5.979,1.176-6.513-0.07
		C100.262,130.334,102.327,128.353,105.389,127.144z M83.573,167.484c-0.167,2.997-1.408,5.372-2.773,5.319
		c-1.363-0.054-2.321-2.513-2.154-5.503c0.175-2.993,1.408-5.372,2.772-5.322C82.781,162.032,83.748,164.505,83.573,167.484z
		 M73.313,107.359c1.934-2.543,4.439-3.977,5.582-3.201c1.151,0.771,0.512,3.465-1.416,6.004c-1.935,2.542-4.44,3.969-5.583,3.197
		C70.739,112.587,71.379,109.901,73.313,107.359z M58.772,66.345c2.826-1.767,5.736-2.208,6.498-0.986
		c0.762,1.215-0.907,3.645-3.74,5.416c-2.82,1.771-5.736,2.221-6.498,0.986C54.278,70.54,55.945,68.116,58.772,66.345z
		 M26.449,63.729c-1.386,0.4-3.252-1.885-4.159-5.086c-0.907-3.211-0.541-6.133,0.854-6.526c1.378-0.399,3.253,1.877,4.159,5.086
		C28.217,60.409,27.827,63.33,26.449,63.729z"/>
</g>
<path fill="#2ECC71" d="M162.269,21.345c-10.793,11.243-3.375,17.369-3.792,26.574c-0.938,4.426-3.999,8.553-7.93,10.425
	c-14.466,6.888-16.842-13.725-27.171-18.556c-1.06-0.497-1.685-0.558-2.818-0.777c4.044-1.068,7.436-5.846,8.555-8.202
	c2.916,1.15,6.353-0.64,7.677-3.998c1.326-3.357,0.032-7.018-2.887-8.167c-2.909-1.153-6.353,0.637-7.677,3.996
	c-1.053,2.677-0.557,5.833,1.226,7.44c0.366,0.355,0.427,0.549,0.328,0.792c-1.425,2.29-2.797,5.237-8.844,7.659
	c1.325-3.003,0.685-6.092,0.738-9.797c0.009-0.519,0.092-1.013,0.602-1.129c0-0.004,0-0.014,0-0.022
	c0.146-0.03,0.291-0.064,0.435-0.108c0.184-0.066,0.297-0.12,0.297-0.12l0.009,0.027c2.506-0.863,4.127-3.413,4.136-6.528
	c0.007-3.612-2.529-6.544-5.659-6.552c-3.147-0.007-5.683,2.914-5.691,6.524c-0.007,2.879,1.608,5.631,3.847,6.478
	c0.473,0.198,0.899,0.406,0.899,0.671c-0.251,2.292,0.654,8.588-1.013,10.307c-0.724-3.774-2.865-6.556-4.312-7.601
	c-0.205-0.168-0.19-0.674-0.038-1.159c0.821-2.254-0.199-5.276-2.377-7.152c-2.734-2.359-6.604-2.348-8.653,0.033
	c-2.048,2.375-1.493,6.211,1.241,8.571c2.729,2.355,6.566,2.527,8.898,0.438c1.378,0.537,3.655,4.136,4.258,7.065
	c-5.454,0.367-10.642,4.174-12.044,12.383c-2.856,2.082-5.332,2.397-7.982,7.328c2.743,0.354,7.183-1.443,10.481-1.143
	c5.606,9.325,15.083,8.451,19.15,20.794c9.87,29.968,28.669,34.879,46.158,28.872c8.101-2.783,15.592-8.045,22.685-13.868V68.317
	c-9.126,4.133-16.278,6.39-29.228,2.058c0.621-4.845,19.24-7.484,29.228-14.228V45.874c-3.984,1.521-8.745,4.131-10.596,3.344
	c2.312-2.624,6.383-5.801,10.596-9.485V22.37c-5.23,4.429-10.384,8.904-12.705,9.266c1.644-3.979,6.785-9.811,12.705-16.342V0
	h-9.804C176.528,7.653,167.917,15.452,162.269,21.345z M130.543,24.512c0.58-1.082,1.432-1.752,1.898-1.499
	c0.471,0.253,0.381,1.338-0.223,2.422c-0.586,1.079-1.438,1.756-1.904,1.497C129.851,26.679,129.949,25.595,130.543,24.512z
	 M109.2,28.067c-0.297,0.445-1.362,0.246-2.377-0.437c-1.027-0.682-1.613-1.603-1.324-2.039c0.289-0.446,1.371-0.246,2.384,0.436
	C108.903,26.715,109.498,27.631,109.2,28.067z M117.313,50.796c-0.412,1.489-1.957,2.364-3.451,1.947
	c-1.484-0.418-2.361-1.962-1.942-3.451c0.419-1.491,1.966-2.361,3.451-1.946C116.862,47.76,117.731,49.307,117.313,50.796z
	 M118.493,20.997c0.153-1.22,0.717-2.159,1.234-2.089c0.526,0.061,0.83,1.11,0.685,2.331c-0.151,1.22-0.699,2.161-1.226,2.095
	C118.653,23.267,118.356,22.221,118.493,20.997z M172.529,20.943c3.411-3.753,8.919-1.015,9.019,3.979
	c0.129,6.565-6.057,9.167-10.488,12.616c4.538,1.525,4.439,4.77,3.237,6.952c-1.547,2.806-6.019,5.474-8.706,6.266
	c4.949,2.106,5.841,4.917,4.523,7.41c-2.217,4.156-10.581,7.424-16.675,5.068c8.061,0.413,19.492-8.053,8.411-12.315
	c3.496-1.949,14.25-10.261,5.537-13.303C169.421,38.118,185.631,23.825,172.529,20.943z"/>
</svg>
