<?xml version="1.0" encoding="utf-8"?>
    
<!DOCTYPE svg PUBLIC "-//W3C//DTD SVG 1.1//EN" "http://www.w3.org/Graphics/SVG/1.1/DTD/svg11.dtd">
<svg version="1.1" id="Layer_1" xmlns="http://www.w3.org/2000/svg" xmlns:xlink="http://www.w3.org/1999/xlink" x="0px" y="0px"
	 width="185.673px" height="36.17px" viewBox="2.659 -0.643 185.673 36.17" enable-background="new 2.659 -0.643 185.673 36.17"
	 xml:space="preserve">
<g>
	<path fill="#2ECC71" d="M14.323,1.371l5.015,0.266c-0.038,0.418-0.494,0.798-1.14,0.874v5.661h8.929l0.722-0.304l3.306,1.368
		c-0.076,0.19-0.266,0.418-0.532,0.532c-2.014,13.486-7.371,21.011-19.339,25.268c-0.532-0.875-1.709-2.355-2.545-3.23
		c10.904-3.686,15.919-10.297,17.25-20.061H6.345v8.738H2.659V8.172h11.664V1.371z"/>
	<path fill="#2ECC71" d="M56.388,12.161v3.04h-8.967v13.715h11.094v3.002H32.983v-3.002h11.095V15.201h-8.853v-3.04H56.388z"/>
	<path fill="#2ECC71" d="M86.219,0.649c1.634,1.406,3.647,3.686,4.635,5.243l-0.836,0.646l1.786,0.874
		c-0.152,0.228-0.38,0.418-0.646,0.532C87.967,22.193,81.014,30.513,68.59,35.111c-0.684-0.987-1.824-2.354-2.583-3.116
		C77.86,28.043,84.318,20.027,86.37,9.806H63.232V6.234h24.544l0.304-0.19c-1.063-1.406-2.508-3.077-3.609-4.065L86.219,0.649z
		 M94.501,6.044c-0.912-1.52-3.001-3.951-4.483-5.281l1.786-1.406c1.633,1.444,3.571,3.724,4.598,5.281L94.501,6.044z"/>
	<path fill="#2ECC71" d="M97.837,10.184c0.96-0.032,2.048-0.064,3.009-0.128c2.526-0.224,19.549-1.44,23.229-1.408l0.031,1.76
		c-0.447-0.032-0.896-0.064-1.344-0.064c-1.695,0-3.264,0.32-5.216,1.504c-5.216,3.072-9.95,8.479-9.95,12.767
		c0,4.769,3.104,7.616,11.326,8.769l-0.704,1.6c-9.118-1.344-12.415-4.607-12.415-10.334c0-4.736,4.736-10.368,10.977-14.144
		c-3.36,0.224-13.504,0.96-18.079,1.376c-0.097,0.224-0.447,0.448-0.673,0.48L97.837,10.184z M118.348,16.04
		c1.567,1.184,3.487,3.104,4.479,4.479l-0.96,0.801c-0.992-1.438-2.944-3.392-4.385-4.48L118.348,16.04z M121.675,13.256
		c1.601,1.184,3.521,3.04,4.479,4.447l-0.961,0.8c-0.896-1.312-2.782-3.231-4.383-4.447L121.675,13.256z"/>
	<path fill="#2ECC71" d="M128.173,13.448v-2.432H140.3v2.432H128.173z M139.402,24.519v9.601h-7.166v1.375h-2.592V24.519H139.402z
		 M139.244,15.56v2.368h-9.536V15.56H139.244z M129.708,22.375v-2.369h9.536v2.369H129.708z M139.244,6.633V9H129.9V6.633H139.244z
		 M136.779,26.95h-4.543v4.704h4.543V26.95z M158.41,17.96h-7.359v4.798h5.855v12.607h-3.008v-1.438h-8.607v1.6h-2.88V22.758h5.504
		V17.96h-7.392v-2.88h7.392v-4.64c-2.017,0.32-4.063,0.576-5.983,0.768c-0.127-0.736-0.543-1.888-0.896-2.56
		c4.927-0.544,10.56-1.536,13.887-2.72l2.399,2.56c-0.129,0.128-0.288,0.128-0.735,0.128c-1.536,0.48-3.456,0.928-5.536,1.312v5.152
		h7.359V17.96z M153.898,31.174v-5.663h-8.607v5.663H153.898z"/>
	<path fill="#2ECC71" d="M160.686,10.984c2.017-0.064,11.84-0.32,14.047-0.416c0-0.448-0.129-3.872-0.191-4.736l4.352,0.192
		c-0.031,0.288-0.32,0.608-0.896,0.704c0,0.832,0.032,2.368,0.063,3.776c4.063-0.128,8.225-0.224,10.271-0.256v3.008
		c-2.464-0.032-6.271,0-10.207,0.128c0.031,1.184,0.031,2.335,0.062,3.136c0.064,1.12,0.097,1.952,0.129,2.977
		c0.416,1.248,0.447,2.752,0.447,3.52c0,6.561-4.512,10.398-9.632,12.352c-0.544-0.736-1.632-1.854-2.335-2.496
		c4.127-1.472,6.751-3.615,7.711-6.08h-0.031c-0.513,0.642-1.439,1.121-2.496,1.121c-2.849,0-5.535-2.305-5.535-5.729
		c0-3.52,2.88-6.079,5.982-6.079c0.961,0,1.889,0.256,2.528,0.704c0-0.128-0.032-0.256-0.032-0.352
		c-0.031-0.608-0.064-1.888-0.096-3.008c-5.28,0.16-10.527,0.288-14.047,0.48L160.686,10.984z M175.436,22.12
		c0-2.305-0.959-3.457-2.814-3.457s-3.264,1.408-3.264,3.521c0,1.92,1.438,3.2,3.039,3.2
		C174.348,25.383,175.436,23.847,175.436,22.12z"/>
</g>
</svg>
