<?xml version="1.0" encoding="utf-8"?>
    
<!DOCTYPE svg PUBLIC "-//W3C//DTD SVG 1.1//EN" "http://www.w3.org/Graphics/SVG/1.1/DTD/svg11.dtd">
<svg version="1.1" id="Layer_1" xmlns="http://www.w3.org/2000/svg" xmlns:xlink="http://www.w3.org/1999/xlink" x="0px" y="0px"
	 width="194px" height="35.389px" viewBox="0 0 194 35.389" enable-background="new 0 0 194 35.389" xml:space="preserve">
<g>
	<path fill="#2ECC71" d="M19.059,15.008c-0.83,0.187-2.221,0.359-4.173,0.521c-1.951,0.162-3.505,0.241-4.654,0.241v5.617h-3.29
		V15.85H0v-2.61l9.631-0.038c1.656,0,3.478-0.104,5.455-0.303c1.979-0.198,3.303-0.354,3.972-0.46L19.059,15.008L19.059,15.008z
		 M4.032,1.704C5.409,0.568,7.168,0,9.308,0c2.193,0,3.979,0.566,5.357,1.704c1.377,1.14,2.066,2.484,2.066,4.033
		c0,1.553-0.689,2.876-2.066,3.973c-1.378,1.098-3.164,1.645-5.357,1.645c-2.141,0-3.9-0.547-5.277-1.645
		C2.654,8.614,1.963,7.29,1.963,5.738C1.966,4.188,2.654,2.843,4.032,1.704z M6.179,8.066C6.927,8.708,7.97,9.028,9.308,9.028
		c1.337,0,2.394-0.319,3.169-0.962c0.774-0.644,1.164-1.433,1.164-2.368c0-0.883-0.39-1.666-1.164-2.347
		c-0.775-0.683-1.832-1.023-3.169-1.023c-1.338,0-2.381,0.342-3.129,1.023C5.43,4.033,5.056,4.816,5.056,5.698
		C5.056,6.633,5.43,7.423,6.179,8.066z M6.378,35.389V23.072h3.369v3.329h17.414v-3.329h3.369v12.317H6.378z M27.164,28.929H9.75
		v3.812h17.414V28.929z M20.303,21.506V19.66h-6.46v-2.409h6.46V0.682h3.289v20.824H20.303z M27.204,21.545V0.041h3.329v21.504
		H27.204z"/>
	<path fill="#2ECC71" d="M35.002,30.406v-1.842h28.479v1.842H35.002z M41.515,7.66c2-1.593,4.582-2.388,7.744-2.388
		c3.184,0,5.77,0.795,7.757,2.388c1.99,1.592,2.986,3.524,2.986,5.797s-1,4.211-3,5.814c-2.001,1.604-4.583,2.402-7.744,2.402
		c-3.16,0-5.743-0.795-7.744-2.388c-1.999-1.591-3-3.534-3-5.831C38.514,11.184,39.515,9.251,41.515,7.66z M43.237,18.097
		c1.604,1.206,3.611,1.807,6.02,1.807c2.388,0,4.389-0.602,6.001-1.807c1.613-1.205,2.422-2.751,2.422-4.639
		c0-2.026-0.802-3.604-2.404-4.743c-1.604-1.136-3.612-1.704-6.02-1.704c-2.454,0-4.473,0.58-6.053,1.738
		c-1.58,1.16-2.37,2.729-2.37,4.706C40.834,15.345,41.635,16.892,43.237,18.097z"/>
	<path fill="#2ECC71" d="M65.696,30.781v-1.808h13.097V22.8h-9.139v-9.14h17.87V7.933H69.551V6.159h20.157v9.276H71.837v5.593
		h19.132v1.775h-9.96v6.172h13.165v1.809L65.696,30.781L65.696,30.781z"/>
	<path fill="#2ECC71" d="M108.564,18.198V5.92h14.086v12.276L108.564,18.198L108.564,18.198z M119.889,8.24h-8.594v7.64h8.594V8.24z
		 M111.907,34.604v-7.743h16.571V23.69h-16.571v-2.284h19.575v7.674h-16.608v3.238h17.325v2.284h-20.292V34.604z M131.484,4.523
		v5.625h4.195v2.488h-4.195v7.335h-2.863V4.523H131.484L131.484,4.523z"/>
	<path fill="#2ECC71" d="M138.34,12.605v-2.456h17.7v2.456H138.34z M141.648,17.023c1.435-1.442,3.309-2.166,5.627-2.166
		c2.229,0,4.063,0.724,5.508,2.166c1.441,1.442,2.164,3.145,2.164,5.1c0,1.909-0.723,3.613-2.164,5.114
		c-1.443,1.501-3.291,2.251-5.541,2.251c-2.274,0-4.133-0.736-5.577-2.218c-1.442-1.478-2.165-3.192-2.165-5.147
		S140.216,18.465,141.648,17.023z M143.729,25.617c0.842,0.94,2.014,1.412,3.514,1.412c1.479,0,2.648-0.478,3.513-1.434
		c0.863-0.952,1.296-2.111,1.296-3.478c0-1.343-0.427-2.487-1.277-3.429c-0.854-0.94-2.026-1.416-3.53-1.416
		c-1.505,0-2.673,0.475-3.513,1.416c-0.844,0.941-1.264,2.087-1.264,3.429C142.466,23.506,142.887,24.672,143.729,25.617z
		 M142.637,7.591V5.204h9.176v2.388L142.637,7.591L142.637,7.591z M162.248,4.523v12.448h4.568v2.625h-4.568V34.91h-2.863V4.523
		H162.248z"/>
	<path fill="#2ECC71" d="M184.824,6.432c-0.092,2.229-0.422,4.369-0.987,6.427c-0.567,2.061-1.362,3.996-2.388,5.816
		c-1.094,2.002-2.461,3.85-4.112,5.541c-1.649,1.694-3.552,3.213-5.71,4.553c-0.271-0.249-0.686-0.58-1.23-0.987
		c-0.545-0.406-1-0.729-1.362-0.952c2.024-1.068,3.815-2.29,5.37-3.666c1.556-1.375,2.882-2.895,3.975-4.555
		c0.934-1.432,1.664-2.961,2.199-4.587c0.531-1.625,0.88-3.335,1.04-5.132h-10.71V6.432H184.824L184.824,6.432z M191.1,34.875V4.555
		h2.9v30.32H191.1z"/>
</g>
</svg>
