<?xml version="1.0" encoding="utf-8"?>
    
<!DOCTYPE svg PUBLIC "-//W3C//DTD SVG 1.1//EN" "http://www.w3.org/Graphics/SVG/1.1/DTD/svg11.dtd">
<svg version="1.1" id="Layer_1" xmlns="http://www.w3.org/2000/svg" xmlns:xlink="http://www.w3.org/1999/xlink" x="0px" y="0px"
	 width="163.125px" height="36.789px" viewBox="0.598 -1.885 163.125 36.789" enable-background="new 0.598 -1.885 163.125 36.789"
	 xml:space="preserve">
<g>
	<path fill="#2ECC71" d="M0.598,6.366h17.809V9.23h-7.205v19.603H7.834V9.23H0.598V6.366z"/>
	<path fill="#2ECC71" d="M25.833,12.187c3.115,0,6.702,1.007,6.702,4.751v11.893h-2.737c0-0.188-0.126-2.484-0.126-2.736
		c-0.724,1.511-2.517,3.115-5.726,3.115c-3.335,0-5.664-1.447-5.664-4.656c0-3.934,3.115-4.562,6.041-4.909
		c3.304-0.377,5.191-0.251,5.191-2.328c0-1.699-1.258-2.926-3.87-2.926c-2.548,0-3.87,1.258-3.996,3.304h-2.926
		C18.942,13.949,21.805,12.187,25.833,12.187z M29.419,20.336c-0.724,0.66-1.573,0.629-4.027,0.943
		c-2.423,0.314-4.059,0.787-4.059,3.115c0,1.636,1.227,2.77,3.649,2.77c2.832,0,4.5-2.172,4.5-4.5c0-1.069,0-1.354,0-2.328
		C29.482,20.336,29.451,20.336,29.419,20.336z"/>
	<path fill="#2ECC71" d="M40.149,6.366v22.464h-3.052V6.366H40.149z"/>
	<path fill="#2ECC71" d="M48.046,28.831h-3.052V6.366h3.052v13.341l7.677-7.111h3.65l-6.607,6.073l7.268,10.162H56.29l-5.601-8.117
		l-2.643,2.328V28.831z"/>
	<path fill="#2ECC71" d="M62.457,9.859V6.366h3.052v3.493H62.457z M62.457,28.831V12.596h3.052v16.234H62.457z"/>
	<path fill="#2ECC71" d="M72.998,12.596v3.083h0.094c0.881-2.423,3.272-3.461,5.475-3.461c4.059,0,5.696,2.769,5.696,6.354v10.258
		H81.21V19.11c0-2.8-1.542-4.468-3.776-4.468c-2.926,0-4.31,2.297-4.31,5.444v8.746h-3.021V12.596H72.998z"/>
	<path fill="#2ECC71" d="M100.403,24.961c-0.85,2.14-3.146,3.24-5.412,3.24c-4.751,0-6.859-3.648-6.859-7.992
		c0-4.278,2.422-8.022,6.953-8.022c2.518,0,4.5,1.322,5.318,3.367h0.062v-2.958h2.927v15.385c0,4.438-2.203,6.923-7.709,6.923
		c-4.09,0-6.795-1.825-6.953-5.35h3.051c0.158,2.266,1.889,3.21,4.154,3.21c3.051,0,4.53-1.637,4.53-4.594v-3.211h-0.062V24.961z
		 M95.778,14.547c-3.115,0-4.594,2.643-4.594,5.601c0,2.957,1.321,5.695,4.5,5.695c3.146,0,4.781-2.55,4.781-5.443
		C100.466,17.347,99.112,14.547,95.778,14.547z"/>
</g>
<g>
	<path fill="#2ECC71" d="M93.295,7.114c0,0.928,0.331,1.07,0.991,1.07c0.268,0,0.52-0.016,0.691-0.063v1.211
		c-0.313,0.047-0.645,0.063-1.117,0.063c-1.32,0-2.092-0.393-2.092-1.715V2.284h-1.399V1.23h1.399v-2.47h1.526v2.47h1.699v1.054
		h-1.699V7.114z"/>
	<path fill="#2ECC71" d="M98.142-1.885v4.562h0.047c0.314-0.881,1.242-1.652,2.644-1.652c1.542,0,2.879,0.802,2.879,2.91v5.412
		h-1.526v-4.83c0-1.526-0.738-2.265-1.888-2.265c-1.479,0-2.155,1.164-2.155,2.69v4.405h-1.51V-1.885H98.142z"/>
	<path fill="#2ECC71" d="M105.96,9.347V1.23h1.447v1.699h0.031c0.347-1.007,1.258-1.699,2.266-1.872
		c0.346-0.031,0.613-0.031,0.85,0.016v1.432c-0.236-0.047-0.566-0.047-0.834-0.031c-1.619,0.11-2.25,1.4-2.25,2.879
		c0,0.251,0,0.488,0,0.755v3.241h-1.51V9.347z"/>
	<path fill="#2ECC71" d="M115.556,1.026c2.471,0,3.996,1.825,3.996,4.279c0,2.454-1.51,4.232-4.012,4.232
		c-2.471,0-3.979-1.778-3.979-4.232C111.562,2.851,113.069,1.026,115.556,1.026z M115.556,8.388c1.699,0,2.471-1.51,2.471-3.083
		c0-1.573-0.756-3.099-2.471-3.099c-1.746,0-2.47,1.526-2.47,3.099C113.086,6.878,113.825,8.388,115.556,8.388z"/>
	<path fill="#2ECC71" d="M127.12,9.347V7.9h-0.031c-0.378,0.944-1.212,1.573-2.359,1.621c-0.299,0.016-0.582,0-0.834-0.047
		c-1.824-0.189-2.392-1.337-2.392-3.099V1.23h1.511v4.861c0,1.542,0.723,2.234,1.889,2.234c1.447,0,2.154-1.148,2.154-2.706V1.23
		h1.525v8.118L127.12,9.347L127.12,9.347z"/>
	<path fill="#2ECC71" d="M136.653,7.412c-0.426,1.07-1.573,1.621-2.705,1.621c-2.377,0-3.43-1.825-3.43-3.996
		c0-2.139,1.211-4.011,3.477-4.011c1.259,0,2.249,0.661,2.658,1.683h0.031V1.23h1.463v7.693c0,2.218-1.102,3.461-3.854,3.461
		c-2.045,0-3.398-0.913-3.477-2.675h1.524c0.079,1.133,0.944,1.605,2.077,1.605c1.525,0,2.266-0.818,2.266-2.297V7.412H136.653z
		 M134.341,2.205c-1.558,0-2.297,1.321-2.297,2.8s0.661,2.848,2.25,2.848c1.573,0,2.393-1.274,2.393-2.722
		C136.687,3.606,136.009,2.205,134.341,2.205z"/>
	<path fill="#2ECC71" d="M141.972-1.885v4.562h0.047c0.314-0.881,1.242-1.652,2.644-1.652c1.542,0,2.879,0.802,2.879,2.91v5.412
		h-1.526v-4.83c0-1.526-0.738-2.265-1.888-2.265c-1.479,0-2.155,1.164-2.155,2.69v4.405h-1.51V-1.885H141.972z"/>
</g>
<g>
	<path fill="#2ECC71" d="M139.252,13.525l-4.358,15.722h-2.379l-3.392-12.354h-0.044l-3.324,12.354h-2.423l-4.337-15.722h2.334
		l3.215,12.353h0.044L128,13.525h2.269l3.392,12.44h0.044l3.236-12.44H139.252z"/>
	<path fill="#2ECC71" d="M145.005,27.948c1.807,0,2.994-0.947,3.26-2.555h1.894c-0.44,2.688-2.378,4.117-5.196,4.117
		c-3.545,0-5.482-2.443-5.482-5.924c0-3.545,2.379-5.988,5.461-5.988c3.766,0,5.481,2.818,5.351,6.408h-8.675
		C141.681,26.406,142.804,27.948,145.005,27.948z M144.917,19.096c-1.96,0-3.215,1.63-3.303,3.609h6.539
		C148.132,20.814,147.097,19.096,144.917,19.096z"/>
	<path fill="#2ECC71" d="M155.026,20.109c0.596-1.497,1.981-2.51,3.963-2.51c2.576,0,4.734,2.18,4.734,5.967
		c0,3.897-2.268,5.944-4.8,5.944c-1.938,0-3.413-0.99-3.985-2.443h-0.043v2.18h-2.026V13.525h2.114v6.583L155.026,20.109
		L155.026,20.109z M158.286,27.904c2.268,0,3.303-2.048,3.303-4.315c0-2.201-0.99-4.338-3.303-4.338
		c-2.18,0-3.369,1.807-3.369,4.338C154.917,25.856,156.062,27.904,158.286,27.904z"/>
</g>
</svg>
